<mxfile host="app.diagrams.net" agent="Mozilla/5.0 (Windows NT 10.0; Win64; x64) AppleWebKit/537.36 (KHTML, like Gecko) Chrome/141.0.0.0 Safari/537.36 Edg/141.0.0.0" version="28.2.7">
  <diagram name="Rede Interna Cliente-Servidor" id="E_9GJKkZsFdoy5BPvCo9">
    <mxGraphModel dx="2354" dy="908" grid="1" gridSize="10" guides="1" tooltips="1" connect="1" arrows="1" fold="1" page="0" pageScale="1" pageWidth="827" pageHeight="1169" math="0" shadow="0">
      <root>
        <mxCell id="0" />
        <mxCell id="1" parent="0" />
        <mxCell id="PYOOvLGiE4LWvHpQT6qN-7" style="endArrow=classic;strokeColor=#000000;startArrow=classic;startFill=1;" parent="1" source="PYOOvLGiE4LWvHpQT6qN-13" edge="1">
          <mxGeometry relative="1" as="geometry">
            <mxPoint x="420" y="170" as="sourcePoint" />
            <mxPoint x="580" y="200" as="targetPoint" />
          </mxGeometry>
        </mxCell>
        <mxCell id="PYOOvLGiE4LWvHpQT6qN-8" style="endArrow=classic;strokeColor=#000000;startArrow=classic;startFill=1;" parent="1" source="PYOOvLGiE4LWvHpQT6qN-16" target="PYOOvLGiE4LWvHpQT6qN-11" edge="1">
          <mxGeometry relative="1" as="geometry">
            <mxPoint x="410" y="250" as="sourcePoint" />
            <mxPoint x="510" y="250" as="targetPoint" />
          </mxGeometry>
        </mxCell>
        <mxCell id="PYOOvLGiE4LWvHpQT6qN-9" style="endArrow=classic;strokeColor=#000000;startArrow=classic;startFill=1;" parent="1" source="PYOOvLGiE4LWvHpQT6qN-14" edge="1">
          <mxGeometry relative="1" as="geometry">
            <mxPoint x="410" y="328.9473684210527" as="sourcePoint" />
            <mxPoint x="650" y="240" as="targetPoint" />
          </mxGeometry>
        </mxCell>
        <mxCell id="PYOOvLGiE4LWvHpQT6qN-10" style="endArrow=classic;strokeColor=#000000;startArrow=classic;startFill=1;" parent="1" source="PYOOvLGiE4LWvHpQT6qN-11" target="PYOOvLGiE4LWvHpQT6qN-15" edge="1">
          <mxGeometry relative="1" as="geometry">
            <mxPoint x="610" y="250" as="sourcePoint" />
            <mxPoint x="710" y="250" as="targetPoint" />
          </mxGeometry>
        </mxCell>
        <mxCell id="PYOOvLGiE4LWvHpQT6qN-11" value="" style="image;html=1;image=img/lib/clip_art/networking/Wireless_Router_128x128.png" parent="1" vertex="1">
          <mxGeometry x="610" y="145" width="80" height="80" as="geometry" />
        </mxCell>
        <mxCell id="PYOOvLGiE4LWvHpQT6qN-13" value="" style="image;html=1;image=img/lib/clip_art/computers/Netbook_128x128.png" parent="1" vertex="1">
          <mxGeometry x="360" y="240" width="80" height="80" as="geometry" />
        </mxCell>
        <mxCell id="PYOOvLGiE4LWvHpQT6qN-14" value="" style="image;html=1;image=img/lib/clip_art/computers/MacBook_128x128.png" parent="1" vertex="1">
          <mxGeometry x="520" y="395" width="80" height="80" as="geometry" />
        </mxCell>
        <mxCell id="PYOOvLGiE4LWvHpQT6qN-15" value="" style="image;html=1;image=img/lib/clip_art/computers/Server_Rack_128x128.png" parent="1" vertex="1">
          <mxGeometry x="800" y="230" width="110" height="100" as="geometry" />
        </mxCell>
        <mxCell id="PYOOvLGiE4LWvHpQT6qN-16" value="" style="image;html=1;image=img/lib/clip_art/computers/Monitor_Tower_128x128.png" parent="1" vertex="1">
          <mxGeometry x="430" y="320" width="80" height="80" as="geometry" />
        </mxCell>
        <mxCell id="PYOOvLGiE4LWvHpQT6qN-17" value="Cliente 1&lt;div&gt;(Python)&lt;/div&gt;" style="text;html=1;whiteSpace=wrap;strokeColor=none;fillColor=none;align=center;verticalAlign=middle;rounded=0;" parent="1" vertex="1">
          <mxGeometry x="360" y="320" width="60" height="30" as="geometry" />
        </mxCell>
        <mxCell id="PYOOvLGiE4LWvHpQT6qN-18" value="Cliente 2&amp;nbsp;&lt;div&gt;(Python)&lt;/div&gt;" style="text;html=1;whiteSpace=wrap;strokeColor=none;fillColor=none;align=center;verticalAlign=middle;rounded=0;" parent="1" vertex="1">
          <mxGeometry x="420" y="400" width="60" height="30" as="geometry" />
        </mxCell>
        <mxCell id="PYOOvLGiE4LWvHpQT6qN-19" value="Cliente 3&lt;div&gt;(Python)&lt;/div&gt;" style="text;html=1;whiteSpace=wrap;strokeColor=none;fillColor=none;align=center;verticalAlign=middle;rounded=0;" parent="1" vertex="1">
          <mxGeometry x="530" y="490" width="60" height="30" as="geometry" />
        </mxCell>
        <mxCell id="PYOOvLGiE4LWvHpQT6qN-20" value="Roteador" style="text;html=1;whiteSpace=wrap;strokeColor=none;fillColor=none;align=center;verticalAlign=middle;rounded=0;" parent="1" vertex="1">
          <mxGeometry x="620" y="120" width="60" height="30" as="geometry" />
        </mxCell>
        <mxCell id="PYOOvLGiE4LWvHpQT6qN-21" value="Servidor Raspberry&lt;div&gt;(API em C e banco de dados SQLITE)&lt;/div&gt;" style="text;html=1;whiteSpace=wrap;strokeColor=none;fillColor=none;align=center;verticalAlign=middle;rounded=0;" parent="1" vertex="1">
          <mxGeometry x="785" y="340" width="140" height="30" as="geometry" />
        </mxCell>
        <mxCell id="PYOOvLGiE4LWvHpQT6qN-24" value="&lt;font style=&quot;font-size: 36px;&quot;&gt;Diagrama de Rede Local - Projeto PIM&lt;/font&gt;" style="text;html=1;whiteSpace=wrap;strokeColor=none;fillColor=none;align=center;verticalAlign=middle;rounded=0;" parent="1" vertex="1">
          <mxGeometry x="425" y="10" width="450" height="90" as="geometry" />
        </mxCell>
        <mxCell id="PYOOvLGiE4LWvHpQT6qN-28" style="edgeStyle=orthogonalEdgeStyle;rounded=0;orthogonalLoop=1;jettySize=auto;html=1;exitX=0.5;exitY=1;exitDx=0;exitDy=0;entryX=0.649;entryY=1.126;entryDx=0;entryDy=0;entryPerimeter=0;" parent="1" source="PYOOvLGiE4LWvHpQT6qN-21" target="PYOOvLGiE4LWvHpQT6qN-21" edge="1">
          <mxGeometry relative="1" as="geometry" />
        </mxCell>
        <mxCell id="SlLci9jpaLUUzbEX2V99-63" style="endArrow=classic;strokeColor=#000000;startArrow=classic;startFill=1;entryX=0;entryY=0.5;entryDx=0;entryDy=0;" edge="1" parent="1" source="SlLci9jpaLUUzbEX2V99-68" target="SlLci9jpaLUUzbEX2V99-67">
          <mxGeometry relative="1" as="geometry">
            <mxPoint x="-250" y="170" as="sourcePoint" />
            <mxPoint x="-90" y="190" as="targetPoint" />
            <Array as="points">
              <mxPoint x="-370" y="185" />
            </Array>
          </mxGeometry>
        </mxCell>
        <mxCell id="SlLci9jpaLUUzbEX2V99-64" style="endArrow=classic;strokeColor=#000000;startArrow=classic;startFill=1;entryX=0;entryY=0.5;entryDx=0;entryDy=0;" edge="1" parent="1" source="SlLci9jpaLUUzbEX2V99-71" target="SlLci9jpaLUUzbEX2V99-67">
          <mxGeometry relative="1" as="geometry">
            <mxPoint x="-260" y="250" as="sourcePoint" />
            <mxPoint x="-160" y="250" as="targetPoint" />
            <Array as="points">
              <mxPoint x="-250" y="185" />
            </Array>
          </mxGeometry>
        </mxCell>
        <mxCell id="SlLci9jpaLUUzbEX2V99-65" style="endArrow=classic;strokeColor=#000000;startArrow=classic;startFill=1;entryX=0;entryY=0.5;entryDx=0;entryDy=0;" edge="1" parent="1" source="SlLci9jpaLUUzbEX2V99-69" target="SlLci9jpaLUUzbEX2V99-67">
          <mxGeometry relative="1" as="geometry">
            <mxPoint x="-260" y="328.9473684210527" as="sourcePoint" />
            <mxPoint x="-20" y="240" as="targetPoint" />
            <Array as="points">
              <mxPoint x="-140" y="240" />
              <mxPoint x="-140" y="185" />
            </Array>
          </mxGeometry>
        </mxCell>
        <mxCell id="SlLci9jpaLUUzbEX2V99-66" style="endArrow=classic;strokeColor=#000000;startArrow=classic;startFill=1;" edge="1" parent="1" source="SlLci9jpaLUUzbEX2V99-67" target="SlLci9jpaLUUzbEX2V99-70">
          <mxGeometry relative="1" as="geometry">
            <mxPoint x="-60" y="250" as="sourcePoint" />
            <mxPoint x="40" y="250" as="targetPoint" />
            <Array as="points">
              <mxPoint x="153" y="185" />
            </Array>
          </mxGeometry>
        </mxCell>
        <mxCell id="SlLci9jpaLUUzbEX2V99-67" value="" style="image;html=1;image=img/lib/clip_art/networking/Wireless_Router_128x128.png" vertex="1" parent="1">
          <mxGeometry x="-60" y="145" width="80" height="80" as="geometry" />
        </mxCell>
        <mxCell id="SlLci9jpaLUUzbEX2V99-68" value="" style="image;html=1;image=img/lib/clip_art/computers/Netbook_128x128.png" vertex="1" parent="1">
          <mxGeometry x="-410" y="240" width="80" height="80" as="geometry" />
        </mxCell>
        <mxCell id="SlLci9jpaLUUzbEX2V99-69" value="" style="image;html=1;image=img/lib/clip_art/computers/MacBook_128x128.png" vertex="1" parent="1">
          <mxGeometry x="-170" y="245" width="80" height="80" as="geometry" />
        </mxCell>
        <mxCell id="SlLci9jpaLUUzbEX2V99-70" value="" style="image;html=1;image=img/lib/clip_art/computers/Server_Rack_128x128.png" vertex="1" parent="1">
          <mxGeometry x="105" y="235" width="95" height="90" as="geometry" />
        </mxCell>
        <mxCell id="SlLci9jpaLUUzbEX2V99-71" value="" style="image;html=1;image=img/lib/clip_art/computers/Monitor_Tower_128x128.png" vertex="1" parent="1">
          <mxGeometry x="-290" y="240" width="80" height="80" as="geometry" />
        </mxCell>
        <mxCell id="SlLci9jpaLUUzbEX2V99-72" value="Cliente 1&lt;div&gt;(Python)&lt;/div&gt;" style="text;html=1;whiteSpace=wrap;strokeColor=none;fillColor=none;align=center;verticalAlign=middle;rounded=0;" vertex="1" parent="1">
          <mxGeometry x="-400" y="330" width="60" height="30" as="geometry" />
        </mxCell>
        <mxCell id="SlLci9jpaLUUzbEX2V99-73" value="Cliente 2&amp;nbsp;&lt;div&gt;(Python)&lt;/div&gt;" style="text;html=1;whiteSpace=wrap;strokeColor=none;fillColor=none;align=center;verticalAlign=middle;rounded=0;" vertex="1" parent="1">
          <mxGeometry x="-280" y="330" width="60" height="30" as="geometry" />
        </mxCell>
        <mxCell id="SlLci9jpaLUUzbEX2V99-74" value="Cliente 3&lt;div&gt;(Python)&lt;/div&gt;" style="text;html=1;whiteSpace=wrap;strokeColor=none;fillColor=none;align=center;verticalAlign=middle;rounded=0;" vertex="1" parent="1">
          <mxGeometry x="-160" y="330" width="60" height="30" as="geometry" />
        </mxCell>
        <mxCell id="SlLci9jpaLUUzbEX2V99-75" value="Roteador" style="text;html=1;whiteSpace=wrap;strokeColor=none;fillColor=none;align=center;verticalAlign=middle;rounded=0;" vertex="1" parent="1">
          <mxGeometry x="-50" y="120" width="60" height="30" as="geometry" />
        </mxCell>
        <mxCell id="SlLci9jpaLUUzbEX2V99-76" value="Servidor Raspberry&lt;div&gt;(API em C e banco de dados SQLITE)&lt;/div&gt;" style="text;html=1;whiteSpace=wrap;strokeColor=none;fillColor=none;align=center;verticalAlign=middle;rounded=0;" vertex="1" parent="1">
          <mxGeometry x="82.5" y="340" width="140" height="30" as="geometry" />
        </mxCell>
        <mxCell id="SlLci9jpaLUUzbEX2V99-77" value="&lt;font style=&quot;font-size: 36px;&quot;&gt;Diagrama de Rede Local - Projeto PIM&lt;/font&gt;" style="text;html=1;whiteSpace=wrap;strokeColor=none;fillColor=none;align=center;verticalAlign=middle;rounded=0;" vertex="1" parent="1">
          <mxGeometry x="-245" y="10" width="450" height="90" as="geometry" />
        </mxCell>
      </root>
    </mxGraphModel>
  </diagram>
</mxfile>
